<svg class="svg-icon" style="width: 1em;height: 1em;vertical-align: middle;fill: currentColor;overflow: hidden;" viewBox="0 0 1024 1024" version="1.1" xmlns="http://www.w3.org/2000/svg"><path d="M150.49401 1023.559869a42.648328 42.648328 0 0 1-26.868447-75.914023l75.061057-60.560626a85.296656 85.296656 0 0 1 97.664671-6.823732A426.483279 426.483279 0 1 0 85.668551 501.117853a414.541747 414.541747 0 0 0 65.678425 238.830636 42.648328 42.648328 0 0 1-72.075674 45.633711A498.558953 498.558953 0 0 1 0.371895 498.558953a511.779935 511.779935 0 1 1 253.331068 455.484142l-76.340507 60.134142a42.648328 42.648328 0 0 1-26.868446 9.382632zM554.800158 682.373246v-213.241639a42.648328 42.648328 0 1 0-85.296656 0v213.241639a42.648328 42.648328 0 0 0 85.296656 0z m-85.296656-341.186623a42.648328 42.648328 0 1 0 42.648328-42.648328 42.648328 42.648328 0 0 0-42.648328 42.648328z" fill="#3E2AD1" /></svg>