<svg width="480" height="64" viewBox="0 0 480 64" fill="none" xmlns="http://www.w3.org/2000/svg">
<path d="M8 0.5H472C476.142 0.5 479.5 3.85786 479.5 8V56C479.5 60.1421 476.142 63.5 472 63.5H7.99999C3.85786 63.5 0.5 60.1421 0.5 56V8C0.5 3.85786 3.85786 0.5 8 0.5Z" stroke="#E4E4E7"/>
<g clip-path="url(#clip0_6010_725)">
<path d="M151.787 32.225C151.787 31.5667 151.729 30.9417 151.629 30.3333H142.212V34.0917H147.604C147.362 35.325 146.654 36.3667 145.604 37.075V39.575H148.821C150.704 37.8333 151.787 35.2667 151.787 32.225Z" fill="#4285F4"/>
<path d="M142.212 42C144.912 42 147.171 41.1 148.821 39.575L145.604 37.075C144.704 37.675 143.562 38.0417 142.212 38.0417C139.604 38.0417 137.396 36.2833 136.604 33.9083H133.287V36.4833C134.929 39.75 138.304 42 142.212 42Z" fill="#01B574"/>
<path d="M136.604 33.9083C136.396 33.3083 136.287 32.6667 136.287 32C136.287 31.3333 136.404 30.6917 136.604 30.0917V27.5167H133.287C132.604 28.8667 132.212 30.3833 132.212 32C132.212 33.6167 132.604 35.1333 133.287 36.4833L136.604 33.9083Z" fill="#FBBC05"/>
<path d="M142.212 25.9583C143.687 25.9583 145.004 26.4667 146.046 27.4583L148.896 24.6083C147.171 22.9917 144.912 22 142.212 22C138.304 22 134.929 24.25 133.287 27.5167L136.604 30.0917C137.396 27.7167 139.604 25.9583 142.212 25.9583Z" fill="#EA4335"/>
</g>
<path d="M163.256 26.3636V38H161.148V26.3636H163.256ZM167.504 32.8864V38H165.447V29.2727H167.413V30.7557H167.516C167.716 30.267 168.036 29.8788 168.476 29.5909C168.919 29.303 169.466 29.1591 170.118 29.1591C170.72 29.1591 171.245 29.2879 171.692 29.5455C172.143 29.803 172.491 30.1761 172.737 30.6648C172.987 31.1534 173.11 31.7462 173.107 32.4432V38H171.05V32.7614C171.05 32.178 170.898 31.7216 170.595 31.392C170.296 31.0625 169.881 30.8977 169.351 30.8977C168.991 30.8977 168.671 30.9773 168.391 31.1364C168.114 31.2917 167.896 31.517 167.737 31.8125C167.582 32.108 167.504 32.4659 167.504 32.8864ZM175.197 38V29.2727H177.254V38H175.197ZM176.232 28.0341C175.906 28.0341 175.625 27.9261 175.391 27.7102C175.156 27.4905 175.038 27.2273 175.038 26.9205C175.038 26.6098 175.156 26.3466 175.391 26.1307C175.625 25.911 175.906 25.8011 176.232 25.8011C176.561 25.8011 176.841 25.911 177.072 26.1307C177.307 26.3466 177.425 26.6098 177.425 26.9205C177.425 27.2273 177.307 27.4905 177.072 27.7102C176.841 27.9261 176.561 28.0341 176.232 28.0341ZM183.176 38.1705C182.305 38.1705 181.557 37.9792 180.932 37.5966C180.311 37.214 179.831 36.6856 179.494 36.0114C179.161 35.3333 178.994 34.553 178.994 33.6705C178.994 32.7841 179.165 32.0019 179.506 31.3239C179.847 30.642 180.328 30.1117 180.949 29.733C181.574 29.3504 182.313 29.1591 183.165 29.1591C183.873 29.1591 184.5 29.2898 185.045 29.5511C185.595 29.8087 186.032 30.1742 186.358 30.6477C186.684 31.1174 186.869 31.6667 186.915 32.2955H184.949C184.869 31.875 184.68 31.5246 184.381 31.2443C184.085 30.9602 183.689 30.8182 183.193 30.8182C182.773 30.8182 182.403 30.9318 182.085 31.1591C181.767 31.3826 181.519 31.7045 181.341 32.125C181.167 32.5455 181.08 33.0492 181.08 33.6364C181.08 34.2311 181.167 34.7424 181.341 35.1705C181.515 35.5947 181.759 35.9223 182.074 36.1534C182.392 36.3807 182.765 36.4943 183.193 36.4943C183.496 36.4943 183.767 36.4375 184.006 36.3239C184.248 36.2064 184.451 36.0379 184.614 35.8182C184.777 35.5985 184.888 35.3314 184.949 35.017H186.915C186.866 35.6345 186.684 36.1818 186.369 36.6591C186.055 37.1326 185.627 37.5038 185.085 37.7727C184.544 38.0379 183.907 38.1705 183.176 38.1705ZM188.604 38V29.2727H190.661V38H188.604ZM189.638 28.0341C189.312 28.0341 189.032 27.9261 188.797 27.7102C188.562 27.4905 188.445 27.2273 188.445 26.9205C188.445 26.6098 188.562 26.3466 188.797 26.1307C189.032 25.911 189.312 25.8011 189.638 25.8011C189.967 25.8011 190.248 25.911 190.479 26.1307C190.714 26.3466 190.831 26.6098 190.831 26.9205C190.831 27.2273 190.714 27.4905 190.479 27.7102C190.248 27.9261 189.967 28.0341 189.638 28.0341ZM195.287 38.1761C194.734 38.1761 194.236 38.0777 193.793 37.8807C193.353 37.6799 193.005 37.3845 192.747 36.9943C192.493 36.6042 192.366 36.1231 192.366 35.5511C192.366 35.0587 192.457 34.6515 192.639 34.3295C192.821 34.0076 193.069 33.75 193.384 33.5568C193.698 33.3636 194.052 33.2178 194.446 33.1193C194.844 33.017 195.255 32.9432 195.679 32.8977C196.19 32.8447 196.605 32.7973 196.923 32.7557C197.241 32.7102 197.473 32.642 197.616 32.5511C197.764 32.4564 197.838 32.3106 197.838 32.1136V32.0795C197.838 31.6515 197.711 31.3201 197.457 31.0852C197.204 30.8504 196.838 30.733 196.361 30.733C195.857 30.733 195.457 30.8428 195.162 31.0625C194.87 31.2822 194.673 31.5417 194.571 31.8409L192.651 31.5682C192.802 31.0379 193.052 30.5947 193.401 30.2386C193.749 29.8788 194.175 29.6098 194.679 29.4318C195.183 29.25 195.74 29.1591 196.349 29.1591C196.77 29.1591 197.188 29.2083 197.605 29.3068C198.022 29.4053 198.402 29.5682 198.747 29.7955C199.092 30.0189 199.368 30.3239 199.577 30.7102C199.789 31.0966 199.895 31.5795 199.895 32.1591V38H197.918V36.8011H197.849C197.724 37.0436 197.548 37.2708 197.321 37.483C197.098 37.6913 196.815 37.8598 196.474 37.9886C196.137 38.1136 195.741 38.1761 195.287 38.1761ZM195.821 36.6648C196.234 36.6648 196.592 36.5833 196.895 36.4205C197.198 36.2538 197.431 36.0341 197.594 35.7614C197.76 35.4886 197.844 35.1913 197.844 34.8693V33.8409C197.779 33.8939 197.67 33.9432 197.514 33.9886C197.363 34.0341 197.192 34.0739 197.003 34.108C196.813 34.142 196.626 34.1723 196.44 34.1989C196.255 34.2254 196.094 34.2481 195.957 34.267C195.651 34.3087 195.376 34.3769 195.134 34.4716C194.891 34.5663 194.7 34.6989 194.56 34.8693C194.42 35.036 194.349 35.2519 194.349 35.517C194.349 35.8958 194.488 36.1818 194.764 36.375C195.041 36.5682 195.393 36.6648 195.821 36.6648ZM212.83 31.5795L210.955 31.7841C210.902 31.5947 210.809 31.4167 210.676 31.25C210.547 31.0833 210.373 30.9489 210.153 30.8466C209.934 30.7443 209.665 30.6932 209.347 30.6932C208.919 30.6932 208.559 30.786 208.267 30.9716C207.979 31.1572 207.837 31.3977 207.841 31.6932C207.837 31.947 207.93 32.1534 208.119 32.3125C208.313 32.4716 208.631 32.6023 209.074 32.7045L210.562 33.0227C211.388 33.2008 212.002 33.483 212.403 33.8693C212.809 34.2557 213.013 34.7614 213.017 35.3864C213.013 35.9356 212.852 36.4205 212.534 36.8409C212.22 37.2576 211.782 37.5833 211.222 37.8182C210.661 38.053 210.017 38.1705 209.29 38.1705C208.222 38.1705 207.362 37.947 206.71 37.5C206.059 37.0492 205.67 36.4223 205.545 35.6193L207.551 35.4261C207.642 35.8201 207.835 36.1174 208.131 36.3182C208.426 36.5189 208.811 36.6193 209.284 36.6193C209.773 36.6193 210.165 36.5189 210.46 36.3182C210.759 36.1174 210.909 35.8693 210.909 35.5739C210.909 35.3239 210.813 35.1174 210.619 34.9545C210.43 34.7917 210.134 34.6667 209.733 34.5795L208.244 34.267C207.407 34.0928 206.788 33.7992 206.386 33.3864C205.985 32.9697 205.786 32.4432 205.79 31.8068C205.786 31.2689 205.932 30.803 206.227 30.4091C206.527 30.0114 206.941 29.7045 207.472 29.4886C208.006 29.2689 208.621 29.1591 209.318 29.1591C210.341 29.1591 211.146 29.3769 211.733 29.8125C212.324 30.2481 212.689 30.8371 212.83 31.5795ZM218.577 38.1705C217.702 38.1705 216.946 37.9886 216.31 37.625C215.677 37.2576 215.19 36.7386 214.849 36.0682C214.509 35.3939 214.338 34.6004 214.338 33.6875C214.338 32.7898 214.509 32.0019 214.849 31.3239C215.194 30.642 215.675 30.1117 216.293 29.733C216.91 29.3504 217.635 29.1591 218.469 29.1591C219.007 29.1591 219.514 29.2462 219.991 29.4205C220.473 29.5909 220.897 29.8561 221.264 30.2159C221.635 30.5758 221.927 31.0341 222.139 31.5909C222.351 32.1439 222.457 32.803 222.457 33.5682V34.1989H215.304V32.8125H220.486C220.482 32.4186 220.397 32.0682 220.23 31.7614C220.063 31.4508 219.83 31.2064 219.531 31.0284C219.236 30.8504 218.891 30.7614 218.497 30.7614C218.077 30.7614 217.707 30.8636 217.389 31.0682C217.071 31.2689 216.823 31.5341 216.645 31.8636C216.471 32.1894 216.382 32.5473 216.378 32.9375V34.1477C216.378 34.6553 216.471 35.0909 216.656 35.4545C216.842 35.8144 217.101 36.0909 217.435 36.2841C217.768 36.4735 218.158 36.5682 218.605 36.5682C218.904 36.5682 219.175 36.5265 219.418 36.4432C219.66 36.3561 219.87 36.2292 220.048 36.0625C220.226 35.8958 220.361 35.6894 220.452 35.4432L222.372 35.6591C222.251 36.1667 222.02 36.6098 221.679 36.9886C221.342 37.3636 220.91 37.6553 220.384 37.8636C219.857 38.0682 219.255 38.1705 218.577 38.1705ZM231.095 31.5795L229.22 31.7841C229.167 31.5947 229.074 31.4167 228.942 31.25C228.813 31.0833 228.639 30.9489 228.419 30.8466C228.199 30.7443 227.93 30.6932 227.612 30.6932C227.184 30.6932 226.824 30.786 226.533 30.9716C226.245 31.1572 226.103 31.3977 226.107 31.6932C226.103 31.947 226.196 32.1534 226.385 32.3125C226.578 32.4716 226.896 32.6023 227.339 32.7045L228.828 33.0227C229.654 33.2008 230.268 33.483 230.669 33.8693C231.074 34.2557 231.279 34.7614 231.283 35.3864C231.279 35.9356 231.118 36.4205 230.8 36.8409C230.485 37.2576 230.048 37.5833 229.487 37.8182C228.927 38.053 228.283 38.1705 227.555 38.1705C226.487 38.1705 225.627 37.947 224.976 37.5C224.324 37.0492 223.936 36.4223 223.811 35.6193L225.817 35.4261C225.908 35.8201 226.101 36.1174 226.396 36.3182C226.692 36.5189 227.076 36.6193 227.55 36.6193C228.038 36.6193 228.43 36.5189 228.726 36.3182C229.025 36.1174 229.175 35.8693 229.175 35.5739C229.175 35.3239 229.078 35.1174 228.885 34.9545C228.696 34.7917 228.4 34.6667 227.999 34.5795L226.51 34.267C225.673 34.0928 225.054 33.7992 224.652 33.3864C224.25 32.9697 224.052 32.4432 224.055 31.8068C224.052 31.2689 224.197 30.803 224.493 30.4091C224.792 30.0114 225.207 29.7045 225.737 29.4886C226.271 29.2689 226.887 29.1591 227.584 29.1591C228.607 29.1591 229.411 29.3769 229.999 29.8125C230.589 30.2481 230.955 30.8371 231.095 31.5795ZM232.979 38V29.2727H235.036V38H232.979ZM234.013 28.0341C233.687 28.0341 233.407 27.9261 233.172 27.7102C232.937 27.4905 232.82 27.2273 232.82 26.9205C232.82 26.6098 232.937 26.3466 233.172 26.1307C233.407 25.911 233.687 25.8011 234.013 25.8011C234.342 25.8011 234.623 25.911 234.854 26.1307C235.089 26.3466 235.206 26.6098 235.206 26.9205C235.206 27.2273 235.089 27.4905 234.854 27.7102C234.623 27.9261 234.342 28.0341 234.013 28.0341ZM240.957 38.1705C240.105 38.1705 239.366 37.983 238.741 37.608C238.116 37.233 237.632 36.7083 237.287 36.0341C236.946 35.3598 236.776 34.572 236.776 33.6705C236.776 32.7689 236.946 31.9792 237.287 31.3011C237.632 30.6231 238.116 30.0966 238.741 29.7216C239.366 29.3466 240.105 29.1591 240.957 29.1591C241.81 29.1591 242.548 29.3466 243.173 29.7216C243.798 30.0966 244.281 30.6231 244.622 31.3011C244.967 31.9792 245.139 32.7689 245.139 33.6705C245.139 34.572 244.967 35.3598 244.622 36.0341C244.281 36.7083 243.798 37.233 243.173 37.608C242.548 37.983 241.81 38.1705 240.957 38.1705ZM240.969 36.5227C241.431 36.5227 241.817 36.3958 242.128 36.142C242.438 35.8845 242.67 35.5398 242.821 35.108C242.976 34.6761 243.054 34.1951 243.054 33.6648C243.054 33.1307 242.976 32.6477 242.821 32.2159C242.67 31.7803 242.438 31.4337 242.128 31.1761C241.817 30.9186 241.431 30.7898 240.969 30.7898C240.495 30.7898 240.101 30.9186 239.787 31.1761C239.476 31.4337 239.243 31.7803 239.088 32.2159C238.937 32.6477 238.861 33.1307 238.861 33.6648C238.861 34.1951 238.937 34.6761 239.088 35.108C239.243 35.5398 239.476 35.8845 239.787 36.142C240.101 36.3958 240.495 36.5227 240.969 36.5227ZM240.168 28.125L241.44 25.5284H243.452L241.707 28.125H240.168ZM248.942 32.8864V38H246.885V29.2727H248.851V30.7557H248.953C249.154 30.267 249.474 29.8788 249.913 29.5909C250.357 29.303 250.904 29.1591 251.555 29.1591C252.158 29.1591 252.682 29.2879 253.129 29.5455C253.58 29.803 253.929 30.1761 254.175 30.6648C254.425 31.1534 254.548 31.7462 254.544 32.4432V38H252.487V32.7614C252.487 32.178 252.336 31.7216 252.033 31.392C251.733 31.0625 251.319 30.8977 250.788 30.8977C250.429 30.8977 250.108 30.9773 249.828 31.1364C249.552 31.2917 249.334 31.517 249.175 31.8125C249.019 32.108 248.942 32.4659 248.942 32.8864ZM264.411 38.1705C263.539 38.1705 262.791 37.9792 262.166 37.5966C261.545 37.214 261.066 36.6856 260.729 36.0114C260.395 35.3333 260.229 34.553 260.229 33.6705C260.229 32.7841 260.399 32.0019 260.74 31.3239C261.081 30.642 261.562 30.1117 262.183 29.733C262.808 29.3504 263.547 29.1591 264.399 29.1591C265.107 29.1591 265.734 29.2898 266.28 29.5511C266.829 29.8087 267.267 30.1742 267.592 30.6477C267.918 31.1174 268.104 31.6667 268.149 32.2955H266.183C266.104 31.875 265.914 31.5246 265.615 31.2443C265.32 30.9602 264.924 30.8182 264.428 30.8182C264.007 30.8182 263.638 30.9318 263.32 31.1591C263.001 31.3826 262.753 31.7045 262.575 32.125C262.401 32.5455 262.314 33.0492 262.314 33.6364C262.314 34.2311 262.401 34.7424 262.575 35.1705C262.75 35.5947 262.994 35.9223 263.308 36.1534C263.626 36.3807 264 36.4943 264.428 36.4943C264.731 36.4943 265.001 36.4375 265.24 36.3239C265.482 36.2064 265.685 36.0379 265.848 35.8182C266.011 35.5985 266.123 35.3314 266.183 35.017H268.149C268.1 35.6345 267.918 36.1818 267.604 36.6591C267.289 37.1326 266.861 37.5038 266.32 37.7727C265.778 38.0379 265.142 38.1705 264.411 38.1705ZM273.645 38.1705C272.793 38.1705 272.054 37.983 271.429 37.608C270.804 37.233 270.319 36.7083 269.974 36.0341C269.634 35.3598 269.463 34.572 269.463 33.6705C269.463 32.7689 269.634 31.9792 269.974 31.3011C270.319 30.6231 270.804 30.0966 271.429 29.7216C272.054 29.3466 272.793 29.1591 273.645 29.1591C274.497 29.1591 275.236 29.3466 275.861 29.7216C276.486 30.0966 276.969 30.6231 277.31 31.3011C277.654 31.9792 277.827 32.7689 277.827 33.6705C277.827 34.572 277.654 35.3598 277.31 36.0341C276.969 36.7083 276.486 37.233 275.861 37.608C275.236 37.983 274.497 38.1705 273.645 38.1705ZM273.656 36.5227C274.118 36.5227 274.505 36.3958 274.815 36.142C275.126 35.8845 275.357 35.5398 275.509 35.108C275.664 34.6761 275.741 34.1951 275.741 33.6648C275.741 33.1307 275.664 32.6477 275.509 32.2159C275.357 31.7803 275.126 31.4337 274.815 31.1761C274.505 30.9186 274.118 30.7898 273.656 30.7898C273.183 30.7898 272.789 30.9186 272.474 31.1761C272.164 31.4337 271.931 31.7803 271.776 32.2159C271.624 32.6477 271.548 33.1307 271.548 33.6648C271.548 34.1951 271.624 34.6761 271.776 35.108C271.931 35.5398 272.164 35.8845 272.474 36.142C272.789 36.3958 273.183 36.5227 273.656 36.5227ZM281.629 32.8864V38H279.572V29.2727H281.538V30.7557H281.641C281.841 30.267 282.161 29.8788 282.601 29.5909C283.044 29.303 283.591 29.1591 284.243 29.1591C284.845 29.1591 285.37 29.2879 285.817 29.5455C286.268 29.803 286.616 30.1761 286.862 30.6648C287.112 31.1534 287.235 31.7462 287.232 32.4432V38H285.175V32.7614C285.175 32.178 285.023 31.7216 284.72 31.392C284.421 31.0625 284.006 30.8977 283.476 30.8977C283.116 30.8977 282.796 30.9773 282.516 31.1364C282.239 31.2917 282.021 31.517 281.862 31.8125C281.707 32.108 281.629 32.4659 281.629 32.8864ZM301.178 30.0795C301.083 29.7727 300.952 29.4981 300.786 29.2557C300.623 29.0095 300.426 28.7992 300.195 28.625C299.967 28.4508 299.706 28.3201 299.411 28.233C299.115 28.142 298.793 28.0966 298.445 28.0966C297.82 28.0966 297.263 28.2538 296.774 28.5682C296.286 28.8826 295.901 29.3447 295.621 29.9545C295.344 30.5606 295.206 31.2992 295.206 32.1705C295.206 33.0492 295.344 33.7936 295.621 34.4034C295.897 35.0133 296.282 35.4773 296.774 35.7955C297.267 36.1098 297.839 36.267 298.49 36.267C299.081 36.267 299.592 36.1534 300.024 35.9261C300.46 35.6989 300.795 35.3769 301.03 34.9602C301.265 34.5398 301.382 34.0473 301.382 33.483L301.859 33.5568H298.7V31.9091H303.422V33.3068C303.422 34.303 303.21 35.1648 302.786 35.892C302.361 36.6193 301.778 37.1799 301.036 37.5739C300.293 37.964 299.441 38.1591 298.479 38.1591C297.407 38.1591 296.465 37.9186 295.655 37.4375C294.848 36.9527 294.217 36.2652 293.763 35.375C293.312 34.4811 293.087 33.4205 293.087 32.1932C293.087 31.2538 293.219 30.4148 293.484 29.6761C293.753 28.9375 294.128 28.3106 294.609 27.7955C295.09 27.2765 295.655 26.8826 296.303 26.6136C296.95 26.3409 297.655 26.2045 298.416 26.2045C299.06 26.2045 299.661 26.2992 300.217 26.4886C300.774 26.6742 301.268 26.9394 301.7 27.2841C302.136 27.6288 302.494 28.0379 302.774 28.5114C303.054 28.9848 303.238 29.5076 303.325 30.0795H301.178ZM309.176 38.1705C308.324 38.1705 307.585 37.983 306.96 37.608C306.335 37.233 305.85 36.7083 305.506 36.0341C305.165 35.3598 304.994 34.572 304.994 33.6705C304.994 32.7689 305.165 31.9792 305.506 31.3011C305.85 30.6231 306.335 30.0966 306.96 29.7216C307.585 29.3466 308.324 29.1591 309.176 29.1591C310.028 29.1591 310.767 29.3466 311.392 29.7216C312.017 30.0966 312.5 30.6231 312.841 31.3011C313.186 31.9792 313.358 32.7689 313.358 33.6705C313.358 34.572 313.186 35.3598 312.841 36.0341C312.5 36.7083 312.017 37.233 311.392 37.608C310.767 37.983 310.028 38.1705 309.176 38.1705ZM309.188 36.5227C309.65 36.5227 310.036 36.3958 310.347 36.142C310.657 35.8845 310.888 35.5398 311.04 35.108C311.195 34.6761 311.273 34.1951 311.273 33.6648C311.273 33.1307 311.195 32.6477 311.04 32.2159C310.888 31.7803 310.657 31.4337 310.347 31.1761C310.036 30.9186 309.65 30.7898 309.188 30.7898C308.714 30.7898 308.32 30.9186 308.006 31.1761C307.695 31.4337 307.462 31.7803 307.307 32.2159C307.155 32.6477 307.08 33.1307 307.08 33.6648C307.08 34.1951 307.155 34.6761 307.307 35.108C307.462 35.5398 307.695 35.8845 308.006 36.142C308.32 36.3958 308.714 36.5227 309.188 36.5227ZM318.911 38.1705C318.058 38.1705 317.32 37.983 316.695 37.608C316.07 37.233 315.585 36.7083 315.24 36.0341C314.899 35.3598 314.729 34.572 314.729 33.6705C314.729 32.7689 314.899 31.9792 315.24 31.3011C315.585 30.6231 316.07 30.0966 316.695 29.7216C317.32 29.3466 318.058 29.1591 318.911 29.1591C319.763 29.1591 320.501 29.3466 321.126 29.7216C321.751 30.0966 322.234 30.6231 322.575 31.3011C322.92 31.9792 323.092 32.7689 323.092 33.6705C323.092 34.572 322.92 35.3598 322.575 36.0341C322.234 36.7083 321.751 37.233 321.126 37.608C320.501 37.983 319.763 38.1705 318.911 38.1705ZM318.922 36.5227C319.384 36.5227 319.77 36.3958 320.081 36.142C320.392 35.8845 320.623 35.5398 320.774 35.108C320.929 34.6761 321.007 34.1951 321.007 33.6648C321.007 33.1307 320.929 32.6477 320.774 32.2159C320.623 31.7803 320.392 31.4337 320.081 31.1761C319.77 30.9186 319.384 30.7898 318.922 30.7898C318.448 30.7898 318.054 30.9186 317.74 31.1761C317.429 31.4337 317.196 31.7803 317.041 32.2159C316.89 32.6477 316.814 33.1307 316.814 33.6648C316.814 34.1951 316.89 34.6761 317.041 35.108C317.196 35.5398 317.429 35.8845 317.74 36.142C318.054 36.3958 318.448 36.5227 318.922 36.5227ZM328.634 41.4545C327.895 41.4545 327.26 41.3542 326.73 41.1534C326.2 40.9564 325.774 40.6913 325.452 40.358C325.13 40.0246 324.906 39.6553 324.781 39.25L326.634 38.8011C326.717 38.9716 326.838 39.1402 326.997 39.3068C327.156 39.4773 327.37 39.6174 327.639 39.7273C327.912 39.8409 328.255 39.8977 328.668 39.8977C329.251 39.8977 329.734 39.7557 330.116 39.4716C330.499 39.1913 330.69 38.7292 330.69 38.0852V36.4318H330.588C330.482 36.6439 330.327 36.8617 330.122 37.0852C329.921 37.3087 329.654 37.4962 329.321 37.6477C328.991 37.7992 328.577 37.875 328.077 37.875C327.406 37.875 326.798 37.7178 326.253 37.4034C325.711 37.0852 325.279 36.6117 324.957 35.983C324.639 35.3504 324.48 34.5587 324.48 33.608C324.48 32.6496 324.639 31.8409 324.957 31.1818C325.279 30.5189 325.713 30.017 326.259 29.6761C326.804 29.3314 327.412 29.1591 328.082 29.1591C328.594 29.1591 329.014 29.2462 329.344 29.4205C329.677 29.5909 329.942 29.7973 330.139 30.0398C330.336 30.2784 330.486 30.5038 330.588 30.7159H330.702V29.2727H332.73V38.142C332.73 38.8883 332.552 39.5057 332.196 39.9943C331.84 40.483 331.353 40.8485 330.736 41.0909C330.118 41.3333 329.418 41.4545 328.634 41.4545ZM328.651 36.2614C329.086 36.2614 329.457 36.1553 329.764 35.9432C330.071 35.7311 330.304 35.4261 330.463 35.0284C330.622 34.6307 330.702 34.1534 330.702 33.5966C330.702 33.0473 330.622 32.5663 330.463 32.1534C330.308 31.7405 330.077 31.4205 329.77 31.1932C329.467 30.9621 329.094 30.8466 328.651 30.8466C328.192 30.8466 327.81 30.9659 327.503 31.2045C327.196 31.4432 326.965 31.7708 326.81 32.1875C326.654 32.6004 326.577 33.0701 326.577 33.5966C326.577 34.1307 326.654 34.5985 326.81 35C326.969 35.3977 327.202 35.7083 327.509 35.9318C327.819 36.1515 328.2 36.2614 328.651 36.2614ZM336.895 26.3636V38H334.838V26.3636H336.895ZM342.874 38.1705C341.999 38.1705 341.243 37.9886 340.607 37.625C339.974 37.2576 339.487 36.7386 339.146 36.0682C338.805 35.3939 338.635 34.6004 338.635 33.6875C338.635 32.7898 338.805 32.0019 339.146 31.3239C339.491 30.642 339.972 30.1117 340.589 29.733C341.207 29.3504 341.932 29.1591 342.766 29.1591C343.304 29.1591 343.811 29.2462 344.288 29.4205C344.769 29.5909 345.194 29.8561 345.561 30.2159C345.932 30.5758 346.224 31.0341 346.436 31.5909C346.648 32.1439 346.754 32.803 346.754 33.5682V34.1989H339.601V32.8125H344.783C344.779 32.4186 344.694 32.0682 344.527 31.7614C344.36 31.4508 344.127 31.2064 343.828 31.0284C343.533 30.8504 343.188 30.7614 342.794 30.7614C342.374 30.7614 342.004 30.8636 341.686 31.0682C341.368 31.2689 341.12 31.5341 340.942 31.8636C340.768 32.1894 340.679 32.5473 340.675 32.9375V34.1477C340.675 34.6553 340.768 35.0909 340.953 35.4545C341.139 35.8144 341.398 36.0909 341.732 36.2841C342.065 36.4735 342.455 36.5682 342.902 36.5682C343.201 36.5682 343.472 36.5265 343.714 36.4432C343.957 36.3561 344.167 36.2292 344.345 36.0625C344.523 35.8958 344.658 35.6894 344.749 35.4432L346.669 35.6591C346.548 36.1667 346.317 36.6098 345.976 36.9886C345.639 37.3636 345.207 37.6553 344.68 37.8636C344.154 38.0682 343.552 38.1705 342.874 38.1705Z" fill="#09090B"/>
<defs>
<clipPath id="clip0_6010_725">
<rect width="20" height="20" fill="white" transform="translate(132 22)"/>
</clipPath>
</defs>
</svg>
