<svg class="svg-icon" style="width: 1.1494140625em;height: 1em;vertical-align: middle;fill: currentColor;overflow: hidden;" viewBox="0 0 1177 1024" version="1.1" xmlns="http://www.w3.org/2000/svg"><path d="M390.839695 1022.534351H146.564885a146.564885 146.564885 0 0 1-146.564885-146.564885v-156.335878a150.473282 150.473282 0 0 1 91.358779-132.885496 752.854962 752.854962 0 0 1 397.190839-42.992367 48.854962 48.854962 0 1 1-15.633587 97.709924 656.122137 656.122137 0 0 0-341.984733 37.61832 54.229008 54.229008 0 0 0-29.312977 42.015268v156.335878a48.854962 48.854962 0 0 0 48.854961 48.854961H390.839695a48.854962 48.854962 0 0 1 0 97.709924z m195.419847-802.687023a219.847328 219.847328 0 0 0-439.694657 0 219.847328 219.847328 0 0 0 439.694657 0z m-97.709924 0a122.137405 122.137405 0 0 1-244.274809 0 122.137405 122.137405 0 0 1 244.274809 0z m683.969466 689.343512v-164.152672a133.374046 133.374046 0 0 0-81.099237-118.229008 628.763359 628.763359 0 0 0-463.633587 0 133.374046 133.374046 0 0 0-81.099237 118.229008v228.641221a48.854962 48.854962 0 0 0 97.709924 0v-228.641221a37.129771 37.129771 0 0 1 19.053435-26.870229 532.030534 532.030534 0 0 1 390.839694 0 37.129771 37.129771 0 0 1 19.053435 26.870229v164.152672a16.610687 16.610687 0 0 1-17.099236 16.122137H781.679389a48.854962 48.854962 0 1 0 0 97.709924h276.030535A114.320611 114.320611 0 0 0 1172.519084 909.19084zM1025.954198 316.580153a170.992366 170.992366 0 1 0-170.992366 168.549618A170.015267 170.015267 0 0 0 1025.954198 316.580153z m-97.709923 0A73.282443 73.282443 0 1 1 854.961832 247.206107 72.305344 72.305344 0 0 1 928.244275 316.580153z" fill="#3E2AD1" /></svg>