<svg width="480" height="64" viewBox="0 0 480 64" fill="none" xmlns="http://www.w3.org/2000/svg">
<path d="M8 0.5H472C476.142 0.5 479.5 3.85786 479.5 8V56C479.5 60.1421 476.142 63.5 472 63.5H7.99999C3.85786 63.5 0.5 60.1421 0.5 56V8C0.5 3.85786 3.85786 0.5 8 0.5Z" stroke="#E4E4E7"/>
<g clip-path="url(#clip0_6177_167)">
<path d="M159.787 32.225C159.787 31.5667 159.729 30.9417 159.629 30.3333H150.212V34.0917H155.604C155.362 35.325 154.654 36.3667 153.604 37.075V39.575H156.821C158.704 37.8333 159.787 35.2667 159.787 32.225Z" fill="#4285F4"/>
<path d="M150.212 42C152.912 42 155.171 41.1 156.821 39.575L153.604 37.075C152.704 37.675 151.562 38.0417 150.212 38.0417C147.604 38.0417 145.396 36.2833 144.604 33.9083H141.287V36.4833C142.929 39.75 146.304 42 150.212 42Z" fill="#01B574"/>
<path d="M144.604 33.9083C144.396 33.3083 144.287 32.6667 144.287 32C144.287 31.3333 144.404 30.6917 144.604 30.0917V27.5167H141.287C140.604 28.8667 140.212 30.3833 140.212 32C140.212 33.6167 140.604 35.1333 141.287 36.4833L144.604 33.9083Z" fill="#FBBC05"/>
<path d="M150.212 25.9583C151.687 25.9583 153.004 26.4667 154.046 27.4583L156.896 24.6083C155.171 22.9917 152.912 22 150.212 22C146.304 22 142.929 24.25 141.287 27.5167L144.604 30.0917C145.396 27.7167 147.604 25.9583 150.212 25.9583Z" fill="#EA4335"/>
</g>
<path d="M169.148 38V26.3636H173.511C174.405 26.3636 175.155 26.5189 175.761 26.8295C176.371 27.1402 176.831 27.5758 177.142 28.1364C177.456 28.6932 177.614 29.3428 177.614 30.0852C177.614 30.8314 177.455 31.4792 177.136 32.0284C176.822 32.5739 176.358 32.9962 175.744 33.2955C175.131 33.5909 174.377 33.7386 173.483 33.7386H170.375V31.9886H173.199C173.722 31.9886 174.15 31.9167 174.483 31.7727C174.816 31.625 175.063 31.411 175.222 31.1307C175.384 30.8466 175.466 30.4981 175.466 30.0852C175.466 29.6723 175.384 29.3201 175.222 29.0284C175.059 28.733 174.811 28.5095 174.477 28.358C174.144 28.2027 173.714 28.125 173.188 28.125H171.256V38H169.148ZM175.159 32.7273L178.04 38H175.688L172.858 32.7273H175.159ZM183.202 38.1705C182.327 38.1705 181.571 37.9886 180.935 37.625C180.302 37.2576 179.815 36.7386 179.474 36.0682C179.134 35.3939 178.963 34.6004 178.963 33.6875C178.963 32.7898 179.134 32.0019 179.474 31.3239C179.819 30.642 180.3 30.1117 180.918 29.733C181.535 29.3504 182.26 29.1591 183.094 29.1591C183.632 29.1591 184.139 29.2462 184.616 29.4205C185.098 29.5909 185.522 29.8561 185.889 30.2159C186.26 30.5758 186.552 31.0341 186.764 31.5909C186.976 32.1439 187.082 32.803 187.082 33.5682V34.1989H179.929V32.8125H185.111C185.107 32.4186 185.022 32.0682 184.855 31.7614C184.688 31.4508 184.455 31.2064 184.156 31.0284C183.861 30.8504 183.516 30.7614 183.122 30.7614C182.702 30.7614 182.332 30.8636 182.014 31.0682C181.696 31.2689 181.448 31.5341 181.27 31.8636C181.096 32.1894 181.007 32.5473 181.003 32.9375V34.1477C181.003 34.6553 181.096 35.0909 181.281 35.4545C181.467 35.8144 181.726 36.0909 182.06 36.2841C182.393 36.4735 182.783 36.5682 183.23 36.5682C183.529 36.5682 183.8 36.5265 184.043 36.4432C184.285 36.3561 184.495 36.2292 184.673 36.0625C184.851 35.8958 184.986 35.6894 185.077 35.4432L186.997 35.6591C186.876 36.1667 186.645 36.6098 186.304 36.9886C185.967 37.3636 185.535 37.6553 185.009 37.8636C184.482 38.0682 183.88 38.1705 183.202 38.1705ZM192.618 41.4545C191.879 41.4545 191.245 41.3542 190.714 41.1534C190.184 40.9564 189.758 40.6913 189.436 40.358C189.114 40.0246 188.891 39.6553 188.766 39.25L190.618 38.8011C190.701 38.9716 190.822 39.1402 190.982 39.3068C191.141 39.4773 191.355 39.6174 191.624 39.7273C191.896 39.8409 192.239 39.8977 192.652 39.8977C193.235 39.8977 193.718 39.7557 194.101 39.4716C194.483 39.1913 194.675 38.7292 194.675 38.0852V36.4318H194.572C194.466 36.6439 194.311 36.8617 194.107 37.0852C193.906 37.3087 193.639 37.4962 193.305 37.6477C192.976 37.7992 192.561 37.875 192.061 37.875C191.391 37.875 190.783 37.7178 190.237 37.4034C189.696 37.0852 189.264 36.6117 188.942 35.983C188.624 35.3504 188.464 34.5587 188.464 33.608C188.464 32.6496 188.624 31.8409 188.942 31.1818C189.264 30.5189 189.697 30.017 190.243 29.6761C190.788 29.3314 191.396 29.1591 192.067 29.1591C192.578 29.1591 192.999 29.2462 193.328 29.4205C193.661 29.5909 193.927 29.7973 194.124 30.0398C194.321 30.2784 194.47 30.5038 194.572 30.7159H194.686V29.2727H196.714V38.142C196.714 38.8883 196.536 39.5057 196.18 39.9943C195.824 40.483 195.338 40.8485 194.72 41.0909C194.103 41.3333 193.402 41.4545 192.618 41.4545ZM192.635 36.2614C193.071 36.2614 193.442 36.1553 193.749 35.9432C194.055 35.7311 194.288 35.4261 194.447 35.0284C194.607 34.6307 194.686 34.1534 194.686 33.5966C194.686 33.0473 194.607 32.5663 194.447 32.1534C194.292 31.7405 194.061 31.4205 193.754 31.1932C193.451 30.9621 193.078 30.8466 192.635 30.8466C192.177 30.8466 191.794 30.9659 191.487 31.2045C191.18 31.4432 190.949 31.7708 190.794 32.1875C190.639 32.6004 190.561 33.0701 190.561 33.5966C190.561 34.1307 190.639 34.5985 190.794 35C190.953 35.3977 191.186 35.7083 191.493 35.9318C191.804 36.1515 192.184 36.2614 192.635 36.2614ZM198.822 38V29.2727H200.879V38H198.822ZM199.857 28.0341C199.531 28.0341 199.25 27.9261 199.016 27.7102C198.781 27.4905 198.663 27.2273 198.663 26.9205C198.663 26.6098 198.781 26.3466 199.016 26.1307C199.25 25.911 199.531 25.8011 199.857 25.8011C200.186 25.8011 200.466 25.911 200.697 26.1307C200.932 26.3466 201.05 26.6098 201.05 26.9205C201.05 27.2273 200.932 27.4905 200.697 27.7102C200.466 27.9261 200.186 28.0341 199.857 28.0341ZM209.892 31.5795L208.017 31.7841C207.964 31.5947 207.871 31.4167 207.739 31.25C207.61 31.0833 207.436 30.9489 207.216 30.8466C206.996 30.7443 206.727 30.6932 206.409 30.6932C205.981 30.6932 205.621 30.786 205.33 30.9716C205.042 31.1572 204.9 31.3977 204.903 31.6932C204.9 31.947 204.992 32.1534 205.182 32.3125C205.375 32.4716 205.693 32.6023 206.136 32.7045L207.625 33.0227C208.451 33.2008 209.064 33.483 209.466 33.8693C209.871 34.2557 210.076 34.7614 210.08 35.3864C210.076 35.9356 209.915 36.4205 209.597 36.8409C209.282 37.2576 208.845 37.5833 208.284 37.8182C207.723 38.053 207.08 38.1705 206.352 38.1705C205.284 38.1705 204.424 37.947 203.773 37.5C203.121 37.0492 202.733 36.4223 202.608 35.6193L204.614 35.4261C204.705 35.8201 204.898 36.1174 205.193 36.3182C205.489 36.5189 205.873 36.6193 206.347 36.6193C206.835 36.6193 207.227 36.5189 207.523 36.3182C207.822 36.1174 207.972 35.8693 207.972 35.5739C207.972 35.3239 207.875 35.1174 207.682 34.9545C207.492 34.7917 207.197 34.6667 206.795 34.5795L205.307 34.267C204.47 34.0928 203.85 33.7992 203.449 33.3864C203.047 32.9697 202.848 32.4432 202.852 31.8068C202.848 31.2689 202.994 30.803 203.29 30.4091C203.589 30.0114 204.004 29.7045 204.534 29.4886C205.068 29.2689 205.684 29.1591 206.381 29.1591C207.403 29.1591 208.208 29.3769 208.795 29.8125C209.386 30.2481 209.752 30.8371 209.892 31.5795ZM216.134 29.2727V30.8636H211.116V29.2727H216.134ZM212.355 27.1818H214.412V35.375C214.412 35.6515 214.454 35.8636 214.537 36.0114C214.624 36.1553 214.738 36.2538 214.878 36.3068C215.018 36.3598 215.173 36.3864 215.344 36.3864C215.473 36.3864 215.59 36.3769 215.696 36.358C215.806 36.339 215.889 36.322 215.946 36.3068L216.293 37.9148C216.183 37.9527 216.026 37.9943 215.821 38.0398C215.62 38.0852 215.374 38.1117 215.082 38.1193C214.567 38.1345 214.103 38.0568 213.69 37.8864C213.277 37.7121 212.95 37.4432 212.707 37.0795C212.469 36.7159 212.351 36.2614 212.355 35.7159V27.1818ZM217.854 38V29.2727H219.848V30.7273H219.939C220.098 30.2235 220.371 29.8352 220.757 29.5625C221.147 29.286 221.592 29.1477 222.092 29.1477C222.206 29.1477 222.333 29.1534 222.473 29.1648C222.617 29.1723 222.736 29.1856 222.831 29.2045V31.0966C222.744 31.0663 222.606 31.0398 222.416 31.017C222.231 30.9905 222.051 30.9773 221.876 30.9773C221.501 30.9773 221.164 31.0587 220.865 31.2216C220.57 31.3807 220.337 31.6023 220.166 31.8864C219.996 32.1705 219.911 32.4981 219.911 32.8693V38H217.854ZM226.553 38.1761C226 38.1761 225.501 38.0777 225.058 37.8807C224.619 37.6799 224.27 37.3845 224.013 36.9943C223.759 36.6042 223.632 36.1231 223.632 35.5511C223.632 35.0587 223.723 34.6515 223.905 34.3295C224.087 34.0076 224.335 33.75 224.649 33.5568C224.964 33.3636 225.318 33.2178 225.712 33.1193C226.109 33.017 226.52 32.9432 226.945 32.8977C227.456 32.8447 227.871 32.7973 228.189 32.7557C228.507 32.7102 228.738 32.642 228.882 32.5511C229.03 32.4564 229.104 32.3106 229.104 32.1136V32.0795C229.104 31.6515 228.977 31.3201 228.723 31.0852C228.469 30.8504 228.104 30.733 227.626 30.733C227.123 30.733 226.723 30.8428 226.428 31.0625C226.136 31.2822 225.939 31.5417 225.837 31.8409L223.916 31.5682C224.068 31.0379 224.318 30.5947 224.666 30.2386C225.015 29.8788 225.441 29.6098 225.945 29.4318C226.448 29.25 227.005 29.1591 227.615 29.1591C228.036 29.1591 228.454 29.2083 228.871 29.3068C229.287 29.4053 229.668 29.5682 230.013 29.7955C230.357 30.0189 230.634 30.3239 230.842 30.7102C231.054 31.0966 231.161 31.5795 231.161 32.1591V38H229.183V36.8011H229.115C228.99 37.0436 228.814 37.2708 228.587 37.483C228.363 37.6913 228.081 37.8598 227.74 37.9886C227.403 38.1136 227.007 38.1761 226.553 38.1761ZM227.087 36.6648C227.5 36.6648 227.857 36.5833 228.161 36.4205C228.464 36.2538 228.696 36.0341 228.859 35.7614C229.026 35.4886 229.109 35.1913 229.109 34.8693V33.8409C229.045 33.8939 228.935 33.9432 228.78 33.9886C228.628 34.0341 228.458 34.0739 228.268 34.108C228.079 34.142 227.892 34.1723 227.706 34.1989C227.52 34.2254 227.359 34.2481 227.223 34.267C226.916 34.3087 226.642 34.3769 226.399 34.4716C226.157 34.5663 225.965 34.6989 225.825 34.8693C225.685 35.036 225.615 35.2519 225.615 35.517C225.615 35.8958 225.753 36.1818 226.03 36.375C226.306 36.5682 226.659 36.6648 227.087 36.6648ZM237.587 29.2727V30.8636H232.57V29.2727H237.587ZM233.808 27.1818H235.865V35.375C235.865 35.6515 235.907 35.8636 235.99 36.0114C236.077 36.1553 236.191 36.2538 236.331 36.3068C236.471 36.3598 236.626 36.3864 236.797 36.3864C236.926 36.3864 237.043 36.3769 237.149 36.358C237.259 36.339 237.342 36.322 237.399 36.3068L237.746 37.9148C237.636 37.9527 237.479 37.9943 237.274 38.0398C237.073 38.0852 236.827 38.1117 236.536 38.1193C236.02 38.1345 235.556 38.0568 235.143 37.8864C234.731 37.7121 234.403 37.4432 234.161 37.0795C233.922 36.7159 233.804 36.2614 233.808 35.7159V27.1818ZM243.077 38.1705C242.202 38.1705 241.446 37.9886 240.81 37.625C240.177 37.2576 239.69 36.7386 239.349 36.0682C239.009 35.3939 238.838 34.6004 238.838 33.6875C238.838 32.7898 239.009 32.0019 239.349 31.3239C239.694 30.642 240.175 30.1117 240.793 29.733C241.41 29.3504 242.135 29.1591 242.969 29.1591C243.507 29.1591 244.014 29.2462 244.491 29.4205C244.973 29.5909 245.397 29.8561 245.764 30.2159C246.135 30.5758 246.427 31.0341 246.639 31.5909C246.851 32.1439 246.957 32.803 246.957 33.5682V34.1989H239.804V32.8125H244.986C244.982 32.4186 244.897 32.0682 244.73 31.7614C244.563 31.4508 244.33 31.2064 244.031 31.0284C243.736 30.8504 243.391 30.7614 242.997 30.7614C242.577 30.7614 242.207 30.8636 241.889 31.0682C241.571 31.2689 241.323 31.5341 241.145 31.8636C240.971 32.1894 240.882 32.5473 240.878 32.9375V34.1477C240.878 34.6553 240.971 35.0909 241.156 35.4545C241.342 35.8144 241.601 36.0909 241.935 36.2841C242.268 36.4735 242.658 36.5682 243.105 36.5682C243.404 36.5682 243.675 36.5265 243.918 36.4432C244.16 36.3561 244.37 36.2292 244.548 36.0625C244.726 35.8958 244.861 35.6894 244.952 35.4432L246.872 35.6591C246.751 36.1667 246.52 36.6098 246.179 36.9886C245.842 37.3636 245.41 37.6553 244.884 37.8636C244.357 38.0682 243.755 38.1705 243.077 38.1705ZM256.473 38.1705C255.602 38.1705 254.854 37.9792 254.229 37.5966C253.607 37.214 253.128 36.6856 252.791 36.0114C252.458 35.3333 252.291 34.553 252.291 33.6705C252.291 32.7841 252.462 32.0019 252.803 31.3239C253.143 30.642 253.625 30.1117 254.246 29.733C254.871 29.3504 255.609 29.1591 256.462 29.1591C257.17 29.1591 257.797 29.2898 258.342 29.5511C258.892 29.8087 259.329 30.1742 259.655 30.6477C259.981 31.1174 260.166 31.6667 260.212 32.2955H258.246C258.166 31.875 257.977 31.5246 257.678 31.2443C257.382 30.9602 256.986 30.8182 256.49 30.8182C256.07 30.8182 255.7 30.9318 255.382 31.1591C255.064 31.3826 254.816 31.7045 254.638 32.125C254.464 32.5455 254.376 33.0492 254.376 33.6364C254.376 34.2311 254.464 34.7424 254.638 35.1705C254.812 35.5947 255.056 35.9223 255.371 36.1534C255.689 36.3807 256.062 36.4943 256.49 36.4943C256.793 36.4943 257.064 36.4375 257.303 36.3239C257.545 36.2064 257.748 36.0379 257.911 35.8182C258.073 35.5985 258.185 35.3314 258.246 35.017H260.212C260.162 35.6345 259.981 36.1818 259.666 36.6591C259.352 37.1326 258.924 37.5038 258.382 37.7727C257.84 38.0379 257.204 38.1705 256.473 38.1705ZM265.707 38.1705C264.855 38.1705 264.116 37.983 263.491 37.608C262.866 37.233 262.382 36.7083 262.037 36.0341C261.696 35.3598 261.526 34.572 261.526 33.6705C261.526 32.7689 261.696 31.9792 262.037 31.3011C262.382 30.6231 262.866 30.0966 263.491 29.7216C264.116 29.3466 264.855 29.1591 265.707 29.1591C266.56 29.1591 267.298 29.3466 267.923 29.7216C268.548 30.0966 269.031 30.6231 269.372 31.3011C269.717 31.9792 269.889 32.7689 269.889 33.6705C269.889 34.572 269.717 35.3598 269.372 36.0341C269.031 36.7083 268.548 37.233 267.923 37.608C267.298 37.983 266.56 38.1705 265.707 38.1705ZM265.719 36.5227C266.181 36.5227 266.567 36.3958 266.878 36.142C267.188 35.8845 267.42 35.5398 267.571 35.108C267.726 34.6761 267.804 34.1951 267.804 33.6648C267.804 33.1307 267.726 32.6477 267.571 32.2159C267.42 31.7803 267.188 31.4337 266.878 31.1761C266.567 30.9186 266.181 30.7898 265.719 30.7898C265.245 30.7898 264.851 30.9186 264.537 31.1761C264.226 31.4337 263.993 31.7803 263.838 32.2159C263.687 32.6477 263.611 33.1307 263.611 33.6648C263.611 34.1951 263.687 34.6761 263.838 35.108C263.993 35.5398 264.226 35.8845 264.537 36.142C264.851 36.3958 265.245 36.5227 265.719 36.5227ZM273.692 32.8864V38H271.635V29.2727H273.601V30.7557H273.703C273.904 30.267 274.224 29.8788 274.663 29.5909C275.107 29.303 275.654 29.1591 276.305 29.1591C276.908 29.1591 277.432 29.2879 277.879 29.5455C278.33 29.803 278.679 30.1761 278.925 30.6648C279.175 31.1534 279.298 31.7462 279.294 32.4432V38H277.237V32.7614C277.237 32.178 277.086 31.7216 276.783 31.392C276.483 31.0625 276.069 30.8977 275.538 30.8977C275.179 30.8977 274.858 30.9773 274.578 31.1364C274.302 31.2917 274.084 31.517 273.925 31.8125C273.769 32.108 273.692 32.4659 273.692 32.8864ZM293.24 30.0795C293.145 29.7727 293.015 29.4981 292.848 29.2557C292.685 29.0095 292.488 28.7992 292.257 28.625C292.03 28.4508 291.768 28.3201 291.473 28.233C291.178 28.142 290.856 28.0966 290.507 28.0966C289.882 28.0966 289.325 28.2538 288.837 28.5682C288.348 28.8826 287.964 29.3447 287.683 29.9545C287.407 30.5606 287.268 31.2992 287.268 32.1705C287.268 33.0492 287.407 33.7936 287.683 34.4034C287.96 35.0133 288.344 35.4773 288.837 35.7955C289.329 36.1098 289.901 36.267 290.553 36.267C291.143 36.267 291.655 36.1534 292.087 35.9261C292.522 35.6989 292.857 35.3769 293.092 34.9602C293.327 34.5398 293.445 34.0473 293.445 33.483L293.922 33.5568H290.763V31.9091H295.484V33.3068C295.484 34.303 295.272 35.1648 294.848 35.892C294.424 36.6193 293.84 37.1799 293.098 37.5739C292.356 37.964 291.503 38.1591 290.541 38.1591C289.469 38.1591 288.528 37.9186 287.717 37.4375C286.911 36.9527 286.28 36.2652 285.825 35.375C285.375 34.4811 285.149 33.4205 285.149 32.1932C285.149 31.2538 285.282 30.4148 285.547 29.6761C285.816 28.9375 286.191 28.3106 286.672 27.7955C287.153 27.2765 287.717 26.8826 288.365 26.6136C289.013 26.3409 289.717 26.2045 290.479 26.2045C291.123 26.2045 291.723 26.2992 292.28 26.4886C292.837 26.6742 293.331 26.9394 293.763 27.2841C294.198 27.6288 294.556 28.0379 294.837 28.5114C295.117 28.9848 295.301 29.5076 295.388 30.0795H293.24ZM301.239 38.1705C300.386 38.1705 299.648 37.983 299.023 37.608C298.398 37.233 297.913 36.7083 297.568 36.0341C297.227 35.3598 297.057 34.572 297.057 33.6705C297.057 32.7689 297.227 31.9792 297.568 31.3011C297.913 30.6231 298.398 30.0966 299.023 29.7216C299.648 29.3466 300.386 29.1591 301.239 29.1591C302.091 29.1591 302.83 29.3466 303.455 29.7216C304.08 30.0966 304.563 30.6231 304.903 31.3011C305.248 31.9792 305.42 32.7689 305.42 33.6705C305.42 34.572 305.248 35.3598 304.903 36.0341C304.563 36.7083 304.08 37.233 303.455 37.608C302.83 37.983 302.091 38.1705 301.239 38.1705ZM301.25 36.5227C301.712 36.5227 302.098 36.3958 302.409 36.142C302.72 35.8845 302.951 35.5398 303.102 35.108C303.258 34.6761 303.335 34.1951 303.335 33.6648C303.335 33.1307 303.258 32.6477 303.102 32.2159C302.951 31.7803 302.72 31.4337 302.409 31.1761C302.098 30.9186 301.712 30.7898 301.25 30.7898C300.777 30.7898 300.383 30.9186 300.068 31.1761C299.758 31.4337 299.525 31.7803 299.369 32.2159C299.218 32.6477 299.142 33.1307 299.142 33.6648C299.142 34.1951 299.218 34.6761 299.369 35.108C299.525 35.5398 299.758 35.8845 300.068 36.142C300.383 36.3958 300.777 36.5227 301.25 36.5227ZM310.973 38.1705C310.121 38.1705 309.382 37.983 308.757 37.608C308.132 37.233 307.647 36.7083 307.303 36.0341C306.962 35.3598 306.791 34.572 306.791 33.6705C306.791 32.7689 306.962 31.9792 307.303 31.3011C307.647 30.6231 308.132 30.0966 308.757 29.7216C309.382 29.3466 310.121 29.1591 310.973 29.1591C311.825 29.1591 312.564 29.3466 313.189 29.7216C313.814 30.0966 314.297 30.6231 314.638 31.3011C314.982 31.9792 315.155 32.7689 315.155 33.6705C315.155 34.572 314.982 35.3598 314.638 36.0341C314.297 36.7083 313.814 37.233 313.189 37.608C312.564 37.983 311.825 38.1705 310.973 38.1705ZM310.984 36.5227C311.446 36.5227 311.833 36.3958 312.143 36.142C312.454 35.8845 312.685 35.5398 312.837 35.108C312.992 34.6761 313.07 34.1951 313.07 33.6648C313.07 33.1307 312.992 32.6477 312.837 32.2159C312.685 31.7803 312.454 31.4337 312.143 31.1761C311.833 30.9186 311.446 30.7898 310.984 30.7898C310.511 30.7898 310.117 30.9186 309.803 31.1761C309.492 31.4337 309.259 31.7803 309.104 32.2159C308.952 32.6477 308.876 33.1307 308.876 33.6648C308.876 34.1951 308.952 34.6761 309.104 35.108C309.259 35.5398 309.492 35.8845 309.803 36.142C310.117 36.3958 310.511 36.5227 310.984 36.5227ZM320.696 41.4545C319.957 41.4545 319.323 41.3542 318.793 41.1534C318.262 40.9564 317.836 40.6913 317.514 40.358C317.192 40.0246 316.969 39.6553 316.844 39.25L318.696 38.8011C318.779 38.9716 318.901 39.1402 319.06 39.3068C319.219 39.4773 319.433 39.6174 319.702 39.7273C319.974 39.8409 320.317 39.8977 320.73 39.8977C321.313 39.8977 321.796 39.7557 322.179 39.4716C322.562 39.1913 322.753 38.7292 322.753 38.0852V36.4318H322.651C322.545 36.6439 322.389 36.8617 322.185 37.0852C321.984 37.3087 321.717 37.4962 321.384 37.6477C321.054 37.7992 320.639 37.875 320.139 37.875C319.469 37.875 318.861 37.7178 318.315 37.4034C317.774 37.0852 317.342 36.6117 317.02 35.983C316.702 35.3504 316.543 34.5587 316.543 33.608C316.543 32.6496 316.702 31.8409 317.02 31.1818C317.342 30.5189 317.776 30.017 318.321 29.6761C318.866 29.3314 319.474 29.1591 320.145 29.1591C320.656 29.1591 321.077 29.2462 321.406 29.4205C321.74 29.5909 322.005 29.7973 322.202 30.0398C322.399 30.2784 322.548 30.5038 322.651 30.7159H322.764V29.2727H324.793V38.142C324.793 38.8883 324.615 39.5057 324.259 39.9943C323.902 40.483 323.416 40.8485 322.798 41.0909C322.181 41.3333 321.48 41.4545 320.696 41.4545ZM320.713 36.2614C321.149 36.2614 321.52 36.1553 321.827 35.9432C322.134 35.7311 322.366 35.4261 322.526 35.0284C322.685 34.6307 322.764 34.1534 322.764 33.5966C322.764 33.0473 322.685 32.5663 322.526 32.1534C322.37 31.7405 322.139 31.4205 321.832 31.1932C321.529 30.9621 321.156 30.8466 320.713 30.8466C320.255 30.8466 319.872 30.9659 319.565 31.2045C319.259 31.4432 319.027 31.7708 318.872 32.1875C318.717 32.6004 318.639 33.0701 318.639 33.5966C318.639 34.1307 318.717 34.5985 318.872 35C319.031 35.3977 319.264 35.7083 319.571 35.9318C319.882 36.1515 320.262 36.2614 320.713 36.2614ZM328.957 26.3636V38H326.901V26.3636H328.957ZM334.936 38.1705C334.061 38.1705 333.305 37.9886 332.669 37.625C332.036 37.2576 331.55 36.7386 331.209 36.0682C330.868 35.3939 330.697 34.6004 330.697 33.6875C330.697 32.7898 330.868 32.0019 331.209 31.3239C331.554 30.642 332.035 30.1117 332.652 29.733C333.269 29.3504 333.995 29.1591 334.828 29.1591C335.366 29.1591 335.874 29.2462 336.351 29.4205C336.832 29.5909 337.256 29.8561 337.624 30.2159C337.995 30.5758 338.286 31.0341 338.499 31.5909C338.711 32.1439 338.817 32.803 338.817 33.5682V34.1989H331.663V32.8125H336.845C336.841 32.4186 336.756 32.0682 336.589 31.7614C336.423 31.4508 336.19 31.2064 335.891 31.0284C335.595 30.8504 335.25 30.7614 334.857 30.7614C334.436 30.7614 334.067 30.8636 333.749 31.0682C333.43 31.2689 333.182 31.5341 333.004 31.8636C332.83 32.1894 332.741 32.5473 332.737 32.9375V34.1477C332.737 34.6553 332.83 35.0909 333.016 35.4545C333.201 35.8144 333.461 36.0909 333.794 36.2841C334.127 36.4735 334.518 36.5682 334.964 36.5682C335.264 36.5682 335.535 36.5265 335.777 36.4432C336.019 36.3561 336.23 36.2292 336.408 36.0625C336.586 35.8958 336.72 35.6894 336.811 35.4432L338.732 35.6591C338.61 36.1667 338.379 36.6098 338.038 36.9886C337.701 37.3636 337.269 37.6553 336.743 37.8636C336.216 38.0682 335.614 38.1705 334.936 38.1705Z" fill="#09090B"/>
<defs>
<clipPath id="clip0_6177_167">
<rect width="20" height="20" fill="white" transform="translate(140 22)"/>
</clipPath>
</defs>
</svg>
