<svg width="480" height="64" viewBox="0 0 480 64" fill="none" xmlns="http://www.w3.org/2000/svg">
<path d="M0 8C0 3.58172 3.58172 0 8 0H472C476.418 0 480 3.58172 480 8V56C480 60.4183 476.418 64 472 64H7.99999C3.58171 64 0 60.4183 0 56V8Z" fill="#22C55E"/>
<path d="M201.148 38V26.3636H205.511C206.405 26.3636 207.155 26.5189 207.761 26.8295C208.371 27.1402 208.831 27.5758 209.142 28.1364C209.456 28.6932 209.614 29.3428 209.614 30.0852C209.614 30.8314 209.455 31.4792 209.136 32.0284C208.822 32.5739 208.358 32.9962 207.744 33.2955C207.131 33.5909 206.377 33.7386 205.483 33.7386H202.375V31.9886H205.199C205.722 31.9886 206.15 31.9167 206.483 31.7727C206.816 31.625 207.063 31.411 207.222 31.1307C207.384 30.8466 207.466 30.4981 207.466 30.0852C207.466 29.6723 207.384 29.3201 207.222 29.0284C207.059 28.733 206.811 28.5095 206.477 28.358C206.144 28.2027 205.714 28.125 205.188 28.125H203.256V38H201.148ZM207.159 32.7273L210.04 38H207.688L204.858 32.7273H207.159ZM215.202 38.1705C214.327 38.1705 213.571 37.9886 212.935 37.625C212.302 37.2576 211.815 36.7386 211.474 36.0682C211.134 35.3939 210.963 34.6004 210.963 33.6875C210.963 32.7898 211.134 32.0019 211.474 31.3239C211.819 30.642 212.3 30.1117 212.918 29.733C213.535 29.3504 214.26 29.1591 215.094 29.1591C215.632 29.1591 216.139 29.2462 216.616 29.4205C217.098 29.5909 217.522 29.8561 217.889 30.2159C218.26 30.5758 218.552 31.0341 218.764 31.5909C218.976 32.1439 219.082 32.803 219.082 33.5682V34.1989H211.929V32.8125H217.111C217.107 32.4186 217.022 32.0682 216.855 31.7614C216.688 31.4508 216.455 31.2064 216.156 31.0284C215.861 30.8504 215.516 30.7614 215.122 30.7614C214.702 30.7614 214.332 30.8636 214.014 31.0682C213.696 31.2689 213.448 31.5341 213.27 31.8636C213.096 32.1894 213.007 32.5473 213.003 32.9375V34.1477C213.003 34.6553 213.096 35.0909 213.281 35.4545C213.467 35.8144 213.726 36.0909 214.06 36.2841C214.393 36.4735 214.783 36.5682 215.23 36.5682C215.529 36.5682 215.8 36.5265 216.043 36.4432C216.285 36.3561 216.495 36.2292 216.673 36.0625C216.851 35.8958 216.986 35.6894 217.077 35.4432L218.997 35.6591C218.876 36.1667 218.645 36.6098 218.304 36.9886C217.967 37.3636 217.535 37.6553 217.009 37.8636C216.482 38.0682 215.88 38.1705 215.202 38.1705ZM224.618 41.4545C223.879 41.4545 223.245 41.3542 222.714 41.1534C222.184 40.9564 221.758 40.6913 221.436 40.358C221.114 40.0246 220.891 39.6553 220.766 39.25L222.618 38.8011C222.701 38.9716 222.822 39.1402 222.982 39.3068C223.141 39.4773 223.355 39.6174 223.624 39.7273C223.896 39.8409 224.239 39.8977 224.652 39.8977C225.235 39.8977 225.718 39.7557 226.101 39.4716C226.483 39.1913 226.675 38.7292 226.675 38.0852V36.4318H226.572C226.466 36.6439 226.311 36.8617 226.107 37.0852C225.906 37.3087 225.639 37.4962 225.305 37.6477C224.976 37.7992 224.561 37.875 224.061 37.875C223.391 37.875 222.783 37.7178 222.237 37.4034C221.696 37.0852 221.264 36.6117 220.942 35.983C220.624 35.3504 220.464 34.5587 220.464 33.608C220.464 32.6496 220.624 31.8409 220.942 31.1818C221.264 30.5189 221.697 30.017 222.243 29.6761C222.788 29.3314 223.396 29.1591 224.067 29.1591C224.578 29.1591 224.999 29.2462 225.328 29.4205C225.661 29.5909 225.927 29.7973 226.124 30.0398C226.321 30.2784 226.47 30.5038 226.572 30.7159H226.686V29.2727H228.714V38.142C228.714 38.8883 228.536 39.5057 228.18 39.9943C227.824 40.483 227.338 40.8485 226.72 41.0909C226.103 41.3333 225.402 41.4545 224.618 41.4545ZM224.635 36.2614C225.071 36.2614 225.442 36.1553 225.749 35.9432C226.055 35.7311 226.288 35.4261 226.447 35.0284C226.607 34.6307 226.686 34.1534 226.686 33.5966C226.686 33.0473 226.607 32.5663 226.447 32.1534C226.292 31.7405 226.061 31.4205 225.754 31.1932C225.451 30.9621 225.078 30.8466 224.635 30.8466C224.177 30.8466 223.794 30.9659 223.487 31.2045C223.18 31.4432 222.949 31.7708 222.794 32.1875C222.639 32.6004 222.561 33.0701 222.561 33.5966C222.561 34.1307 222.639 34.5985 222.794 35C222.953 35.3977 223.186 35.7083 223.493 35.9318C223.804 36.1515 224.184 36.2614 224.635 36.2614ZM230.822 38V29.2727H232.879V38H230.822ZM231.857 28.0341C231.531 28.0341 231.25 27.9261 231.016 27.7102C230.781 27.4905 230.663 27.2273 230.663 26.9205C230.663 26.6098 230.781 26.3466 231.016 26.1307C231.25 25.911 231.531 25.8011 231.857 25.8011C232.186 25.8011 232.466 25.911 232.697 26.1307C232.932 26.3466 233.05 26.6098 233.05 26.9205C233.05 27.2273 232.932 27.4905 232.697 27.7102C232.466 27.9261 232.186 28.0341 231.857 28.0341ZM241.892 31.5795L240.017 31.7841C239.964 31.5947 239.871 31.4167 239.739 31.25C239.61 31.0833 239.436 30.9489 239.216 30.8466C238.996 30.7443 238.727 30.6932 238.409 30.6932C237.981 30.6932 237.621 30.786 237.33 30.9716C237.042 31.1572 236.9 31.3977 236.903 31.6932C236.9 31.947 236.992 32.1534 237.182 32.3125C237.375 32.4716 237.693 32.6023 238.136 32.7045L239.625 33.0227C240.451 33.2008 241.064 33.483 241.466 33.8693C241.871 34.2557 242.076 34.7614 242.08 35.3864C242.076 35.9356 241.915 36.4205 241.597 36.8409C241.282 37.2576 240.845 37.5833 240.284 37.8182C239.723 38.053 239.08 38.1705 238.352 38.1705C237.284 38.1705 236.424 37.947 235.773 37.5C235.121 37.0492 234.733 36.4223 234.608 35.6193L236.614 35.4261C236.705 35.8201 236.898 36.1174 237.193 36.3182C237.489 36.5189 237.873 36.6193 238.347 36.6193C238.835 36.6193 239.227 36.5189 239.523 36.3182C239.822 36.1174 239.972 35.8693 239.972 35.5739C239.972 35.3239 239.875 35.1174 239.682 34.9545C239.492 34.7917 239.197 34.6667 238.795 34.5795L237.307 34.267C236.47 34.0928 235.85 33.7992 235.449 33.3864C235.047 32.9697 234.848 32.4432 234.852 31.8068C234.848 31.2689 234.994 30.803 235.29 30.4091C235.589 30.0114 236.004 29.7045 236.534 29.4886C237.068 29.2689 237.684 29.1591 238.381 29.1591C239.403 29.1591 240.208 29.3769 240.795 29.8125C241.386 30.2481 241.752 30.8371 241.892 31.5795ZM248.134 29.2727V30.8636H243.116V29.2727H248.134ZM244.355 27.1818H246.412V35.375C246.412 35.6515 246.454 35.8636 246.537 36.0114C246.624 36.1553 246.738 36.2538 246.878 36.3068C247.018 36.3598 247.173 36.3864 247.344 36.3864C247.473 36.3864 247.59 36.3769 247.696 36.358C247.806 36.339 247.889 36.322 247.946 36.3068L248.293 37.9148C248.183 37.9527 248.026 37.9943 247.821 38.0398C247.62 38.0852 247.374 38.1117 247.082 38.1193C246.567 38.1345 246.103 38.0568 245.69 37.8864C245.277 37.7121 244.95 37.4432 244.707 37.0795C244.469 36.7159 244.351 36.2614 244.355 35.7159V27.1818ZM249.854 38V29.2727H251.848V30.7273H251.939C252.098 30.2235 252.371 29.8352 252.757 29.5625C253.147 29.286 253.592 29.1477 254.092 29.1477C254.206 29.1477 254.333 29.1534 254.473 29.1648C254.617 29.1723 254.736 29.1856 254.831 29.2045V31.0966C254.744 31.0663 254.606 31.0398 254.416 31.017C254.231 30.9905 254.051 30.9773 253.876 30.9773C253.501 30.9773 253.164 31.0587 252.865 31.2216C252.57 31.3807 252.337 31.6023 252.166 31.8864C251.996 32.1705 251.911 32.4981 251.911 32.8693V38H249.854ZM258.553 38.1761C258 38.1761 257.501 38.0777 257.058 37.8807C256.619 37.6799 256.27 37.3845 256.013 36.9943C255.759 36.6042 255.632 36.1231 255.632 35.5511C255.632 35.0587 255.723 34.6515 255.905 34.3295C256.087 34.0076 256.335 33.75 256.649 33.5568C256.964 33.3636 257.318 33.2178 257.712 33.1193C258.109 33.017 258.52 32.9432 258.945 32.8977C259.456 32.8447 259.871 32.7973 260.189 32.7557C260.507 32.7102 260.738 32.642 260.882 32.5511C261.03 32.4564 261.104 32.3106 261.104 32.1136V32.0795C261.104 31.6515 260.977 31.3201 260.723 31.0852C260.469 30.8504 260.104 30.733 259.626 30.733C259.123 30.733 258.723 30.8428 258.428 31.0625C258.136 31.2822 257.939 31.5417 257.837 31.8409L255.916 31.5682C256.068 31.0379 256.318 30.5947 256.666 30.2386C257.015 29.8788 257.441 29.6098 257.945 29.4318C258.448 29.25 259.005 29.1591 259.615 29.1591C260.036 29.1591 260.454 29.2083 260.871 29.3068C261.287 29.4053 261.668 29.5682 262.013 29.7955C262.357 30.0189 262.634 30.3239 262.842 30.7102C263.054 31.0966 263.161 31.5795 263.161 32.1591V38H261.183V36.8011H261.115C260.99 37.0436 260.814 37.2708 260.587 37.483C260.363 37.6913 260.081 37.8598 259.74 37.9886C259.403 38.1136 259.007 38.1761 258.553 38.1761ZM259.087 36.6648C259.5 36.6648 259.857 36.5833 260.161 36.4205C260.464 36.2538 260.696 36.0341 260.859 35.7614C261.026 35.4886 261.109 35.1913 261.109 34.8693V33.8409C261.045 33.8939 260.935 33.9432 260.78 33.9886C260.628 34.0341 260.458 34.0739 260.268 34.108C260.079 34.142 259.892 34.1723 259.706 34.1989C259.52 34.2254 259.359 34.2481 259.223 34.267C258.916 34.3087 258.642 34.3769 258.399 34.4716C258.157 34.5663 257.965 34.6989 257.825 34.8693C257.685 35.036 257.615 35.2519 257.615 35.517C257.615 35.8958 257.753 36.1818 258.03 36.375C258.306 36.5682 258.659 36.6648 259.087 36.6648ZM269.587 29.2727V30.8636H264.57V29.2727H269.587ZM265.808 27.1818H267.865V35.375C267.865 35.6515 267.907 35.8636 267.99 36.0114C268.077 36.1553 268.191 36.2538 268.331 36.3068C268.471 36.3598 268.626 36.3864 268.797 36.3864C268.926 36.3864 269.043 36.3769 269.149 36.358C269.259 36.339 269.342 36.322 269.399 36.3068L269.746 37.9148C269.636 37.9527 269.479 37.9943 269.274 38.0398C269.073 38.0852 268.827 38.1117 268.536 38.1193C268.02 38.1345 267.556 38.0568 267.143 37.8864C266.731 37.7121 266.403 37.4432 266.161 37.0795C265.922 36.7159 265.804 36.2614 265.808 35.7159V27.1818ZM275.077 38.1705C274.202 38.1705 273.446 37.9886 272.81 37.625C272.177 37.2576 271.69 36.7386 271.349 36.0682C271.009 35.3939 270.838 34.6004 270.838 33.6875C270.838 32.7898 271.009 32.0019 271.349 31.3239C271.694 30.642 272.175 30.1117 272.793 29.733C273.41 29.3504 274.135 29.1591 274.969 29.1591C275.507 29.1591 276.014 29.2462 276.491 29.4205C276.973 29.5909 277.397 29.8561 277.764 30.2159C278.135 30.5758 278.427 31.0341 278.639 31.5909C278.851 32.1439 278.957 32.803 278.957 33.5682V34.1989H271.804V32.8125H276.986C276.982 32.4186 276.897 32.0682 276.73 31.7614C276.563 31.4508 276.33 31.2064 276.031 31.0284C275.736 30.8504 275.391 30.7614 274.997 30.7614C274.577 30.7614 274.207 30.8636 273.889 31.0682C273.571 31.2689 273.323 31.5341 273.145 31.8636C272.971 32.1894 272.882 32.5473 272.878 32.9375V34.1477C272.878 34.6553 272.971 35.0909 273.156 35.4545C273.342 35.8144 273.601 36.0909 273.935 36.2841C274.268 36.4735 274.658 36.5682 275.105 36.5682C275.404 36.5682 275.675 36.5265 275.918 36.4432C276.16 36.3561 276.37 36.2292 276.548 36.0625C276.726 35.8958 276.861 35.6894 276.952 35.4432L278.872 35.6591C278.751 36.1667 278.52 36.6098 278.179 36.9886C277.842 37.3636 277.41 37.6553 276.884 37.8636C276.357 38.0682 275.755 38.1705 275.077 38.1705Z" fill="#FAFAFA"/>
</svg>
